<mxfile host="Electron" agent="Mozilla/5.0 (Windows NT 10.0; Win64; x64) AppleWebKit/537.36 (KHTML, like Gecko) draw.io/26.0.16 Chrome/132.0.6834.196 Electron/34.2.0 Safari/537.36" version="26.0.16">
  <diagram name="Page-1" id="iv2mY7j97U2ojxU97eTD">
    <mxGraphModel dx="1275" dy="518" grid="0" gridSize="10" guides="1" tooltips="1" connect="1" arrows="1" fold="1" page="0" pageScale="1" pageWidth="2000" pageHeight="2000" math="0" shadow="0">
      <root>
        <mxCell id="0" />
        <mxCell id="1" parent="0" />
        <mxCell id="IYAcXKrRA6iLwe_ncHML-3" value="Hệ thống" style="swimlane;startSize=23;" vertex="1" parent="1">
          <mxGeometry x="393" y="190" width="673" height="1131" as="geometry" />
        </mxCell>
        <mxCell id="IYAcXKrRA6iLwe_ncHML-4" value="Hiển thị danh sách khách hàng" style="rounded=1;whiteSpace=wrap;html=1;arcSize=40;fontColor=#000000;fillColor=#FFFFFF;strokeColor=#000000;" vertex="1" parent="IYAcXKrRA6iLwe_ncHML-3">
          <mxGeometry x="30" y="110" width="150" height="40" as="geometry" />
        </mxCell>
        <mxCell id="IYAcXKrRA6iLwe_ncHML-5" style="edgeStyle=orthogonalEdgeStyle;rounded=0;orthogonalLoop=1;jettySize=auto;html=1;exitX=0.5;exitY=1;exitDx=0;exitDy=0;entryX=0.5;entryY=0;entryDx=0;entryDy=0;" edge="1" parent="IYAcXKrRA6iLwe_ncHML-3" source="IYAcXKrRA6iLwe_ncHML-40" target="IYAcXKrRA6iLwe_ncHML-41">
          <mxGeometry relative="1" as="geometry">
            <mxPoint x="85" y="580" as="targetPoint" />
          </mxGeometry>
        </mxCell>
        <mxCell id="IYAcXKrRA6iLwe_ncHML-6" value="[Không hợp lệ]" style="edgeLabel;html=1;align=center;verticalAlign=middle;resizable=0;points=[];" vertex="1" connectable="0" parent="IYAcXKrRA6iLwe_ncHML-5">
          <mxGeometry x="-0.1365" y="3" relative="1" as="geometry">
            <mxPoint as="offset" />
          </mxGeometry>
        </mxCell>
        <mxCell id="IYAcXKrRA6iLwe_ncHML-7" style="edgeStyle=orthogonalEdgeStyle;rounded=0;orthogonalLoop=1;jettySize=auto;html=1;exitX=1;exitY=0.5;exitDx=0;exitDy=0;entryX=0.5;entryY=0;entryDx=0;entryDy=0;" edge="1" parent="IYAcXKrRA6iLwe_ncHML-3" source="IYAcXKrRA6iLwe_ncHML-40" target="IYAcXKrRA6iLwe_ncHML-12">
          <mxGeometry relative="1" as="geometry">
            <mxPoint x="485.0000000000002" y="581" as="targetPoint" />
          </mxGeometry>
        </mxCell>
        <mxCell id="IYAcXKrRA6iLwe_ncHML-8" value="[Hợp lệ]" style="edgeLabel;html=1;align=center;verticalAlign=middle;resizable=0;points=[];" vertex="1" connectable="0" parent="IYAcXKrRA6iLwe_ncHML-7">
          <mxGeometry x="-0.9344" y="-2" relative="1" as="geometry">
            <mxPoint x="28" as="offset" />
          </mxGeometry>
        </mxCell>
        <mxCell id="IYAcXKrRA6iLwe_ncHML-9" value="" style="ellipse;html=1;shape=endState;fillColor=#000000;strokeColor=#000000;" vertex="1" parent="IYAcXKrRA6iLwe_ncHML-3">
          <mxGeometry x="586" y="853" width="30" height="30" as="geometry" />
        </mxCell>
        <mxCell id="IYAcXKrRA6iLwe_ncHML-11" style="edgeStyle=orthogonalEdgeStyle;rounded=0;orthogonalLoop=1;jettySize=auto;html=1;exitX=0.5;exitY=1;exitDx=0;exitDy=0;entryX=0.5;entryY=0;entryDx=0;entryDy=0;" edge="1" parent="IYAcXKrRA6iLwe_ncHML-3" source="IYAcXKrRA6iLwe_ncHML-12" target="IYAcXKrRA6iLwe_ncHML-14">
          <mxGeometry relative="1" as="geometry">
            <mxPoint x="495" y="890" as="targetPoint" />
          </mxGeometry>
        </mxCell>
        <mxCell id="IYAcXKrRA6iLwe_ncHML-12" value="Xử lý thao tác" style="rounded=1;whiteSpace=wrap;html=1;arcSize=40;fontColor=#000000;fillColor=#FFFFFF;strokeColor=#000000;" vertex="1" parent="IYAcXKrRA6iLwe_ncHML-3">
          <mxGeometry x="443" y="641" width="120" height="40" as="geometry" />
        </mxCell>
        <mxCell id="IYAcXKrRA6iLwe_ncHML-13" style="edgeStyle=orthogonalEdgeStyle;rounded=0;orthogonalLoop=1;jettySize=auto;html=1;exitX=0.5;exitY=1;exitDx=0;exitDy=0;entryX=0.5;entryY=0;entryDx=0;entryDy=0;" edge="1" parent="IYAcXKrRA6iLwe_ncHML-3" source="IYAcXKrRA6iLwe_ncHML-14" target="IYAcXKrRA6iLwe_ncHML-93">
          <mxGeometry relative="1" as="geometry" />
        </mxCell>
        <mxCell id="IYAcXKrRA6iLwe_ncHML-14" value="Thông báo thành công" style="rounded=1;whiteSpace=wrap;html=1;arcSize=40;fontColor=#000000;fillColor=#FFFFFF;strokeColor=#000000;" vertex="1" parent="IYAcXKrRA6iLwe_ncHML-3">
          <mxGeometry x="443" y="721" width="120" height="40" as="geometry" />
        </mxCell>
        <mxCell id="IYAcXKrRA6iLwe_ncHML-15" style="edgeStyle=orthogonalEdgeStyle;rounded=0;orthogonalLoop=1;jettySize=auto;html=1;exitX=1;exitY=0.5;exitDx=0;exitDy=0;entryX=0;entryY=0.5;entryDx=0;entryDy=0;" edge="1" parent="IYAcXKrRA6iLwe_ncHML-3" source="IYAcXKrRA6iLwe_ncHML-34" target="IYAcXKrRA6iLwe_ncHML-40">
          <mxGeometry relative="1" as="geometry" />
        </mxCell>
        <mxCell id="IYAcXKrRA6iLwe_ncHML-16" value="Hiển thị biểu mẫu thông tin trống" style="rounded=1;whiteSpace=wrap;html=1;arcSize=40;fontColor=#000000;fillColor=#FFFFFF;strokeColor=#000000;" vertex="1" parent="IYAcXKrRA6iLwe_ncHML-3">
          <mxGeometry x="27" y="498" width="120" height="40" as="geometry" />
        </mxCell>
        <mxCell id="IYAcXKrRA6iLwe_ncHML-17" style="edgeStyle=orthogonalEdgeStyle;rounded=0;orthogonalLoop=1;jettySize=auto;html=1;exitX=1;exitY=0.5;exitDx=0;exitDy=0;entryX=0;entryY=0.5;entryDx=0;entryDy=0;" edge="1" parent="IYAcXKrRA6iLwe_ncHML-3" source="IYAcXKrRA6iLwe_ncHML-18" target="IYAcXKrRA6iLwe_ncHML-93">
          <mxGeometry relative="1" as="geometry">
            <mxPoint x="442" y="868" as="targetPoint" />
          </mxGeometry>
        </mxCell>
        <mxCell id="IYAcXKrRA6iLwe_ncHML-34" value="Kiểm tra tính hợp lệ của thông tin" style="rounded=1;whiteSpace=wrap;html=1;arcSize=40;fontColor=#000000;fillColor=#FFFFFF;strokeColor=#000000;" vertex="1" parent="IYAcXKrRA6iLwe_ncHML-3">
          <mxGeometry x="107" y="321" width="150" height="40" as="geometry" />
        </mxCell>
        <mxCell id="IYAcXKrRA6iLwe_ncHML-36" value="Hiển thị biểu mẫu gồm thông tin khách hàng" style="rounded=1;whiteSpace=wrap;html=1;arcSize=40;fontColor=#000000;fillColor=#FFFFFF;strokeColor=#000000;" vertex="1" parent="IYAcXKrRA6iLwe_ncHML-3">
          <mxGeometry x="172" y="190" width="140" height="60" as="geometry" />
        </mxCell>
        <mxCell id="IYAcXKrRA6iLwe_ncHML-40" value="" style="rhombus;whiteSpace=wrap;html=1;" vertex="1" parent="IYAcXKrRA6iLwe_ncHML-3">
          <mxGeometry x="307" y="321" width="50" height="40" as="geometry" />
        </mxCell>
        <mxCell id="IYAcXKrRA6iLwe_ncHML-41" value="Thông báo thông tin không hợp lệ" style="rounded=1;whiteSpace=wrap;html=1;arcSize=40;fontColor=#000000;fillColor=#FFFFFF;strokeColor=#000000;" vertex="1" parent="IYAcXKrRA6iLwe_ncHML-3">
          <mxGeometry x="257" y="431" width="150" height="40" as="geometry" />
        </mxCell>
        <mxCell id="IYAcXKrRA6iLwe_ncHML-43" value="Hiển thị thống kê lịch sử mua hàng của khác hàng dựa theo bộ lọc, mặc định là hôm nay" style="rounded=1;whiteSpace=wrap;html=1;arcSize=40;fontColor=#000000;fillColor=#FFFFFF;strokeColor=#000000;" vertex="1" parent="IYAcXKrRA6iLwe_ncHML-3">
          <mxGeometry x="121" y="728" width="186" height="72" as="geometry" />
        </mxCell>
        <mxCell id="IYAcXKrRA6iLwe_ncHML-94" style="edgeStyle=orthogonalEdgeStyle;rounded=0;orthogonalLoop=1;jettySize=auto;html=1;exitX=1;exitY=0.5;exitDx=0;exitDy=0;entryX=0;entryY=0.5;entryDx=0;entryDy=0;" edge="1" parent="IYAcXKrRA6iLwe_ncHML-3" source="IYAcXKrRA6iLwe_ncHML-93" target="IYAcXKrRA6iLwe_ncHML-9">
          <mxGeometry relative="1" as="geometry" />
        </mxCell>
        <mxCell id="IYAcXKrRA6iLwe_ncHML-93" value="" style="rhombus;whiteSpace=wrap;html=1;" vertex="1" parent="IYAcXKrRA6iLwe_ncHML-3">
          <mxGeometry x="478" y="848" width="50" height="40" as="geometry" />
        </mxCell>
        <mxCell id="IYAcXKrRA6iLwe_ncHML-60" value="Điền thông tin vào biểu mẫu" style="rounded=1;whiteSpace=wrap;html=1;arcSize=40;fontColor=#000000;fillColor=#FFFFFF;strokeColor=#000000;" vertex="1" parent="IYAcXKrRA6iLwe_ncHML-3">
          <mxGeometry x="-180" y="644.5" width="120" height="40" as="geometry" />
        </mxCell>
        <mxCell id="IYAcXKrRA6iLwe_ncHML-79" style="edgeStyle=orthogonalEdgeStyle;rounded=0;orthogonalLoop=1;jettySize=auto;html=1;exitX=0.5;exitY=1;exitDx=0;exitDy=0;entryX=0.5;entryY=0;entryDx=0;entryDy=0;" edge="1" parent="IYAcXKrRA6iLwe_ncHML-3" source="IYAcXKrRA6iLwe_ncHML-16" target="IYAcXKrRA6iLwe_ncHML-60">
          <mxGeometry relative="1" as="geometry">
            <mxPoint x="-269" y="933" as="targetPoint" />
          </mxGeometry>
        </mxCell>
        <mxCell id="IYAcXKrRA6iLwe_ncHML-18" value="Hiển thị danh sách khách hàng dựa trên thông tin tìm kiếm" style="rounded=1;whiteSpace=wrap;html=1;arcSize=40;fontColor=#000000;fillColor=#FFFFFF;strokeColor=#000000;" vertex="1" parent="IYAcXKrRA6iLwe_ncHML-3">
          <mxGeometry x="19" y="637" width="139" height="55" as="geometry" />
        </mxCell>
        <mxCell id="IYAcXKrRA6iLwe_ncHML-80" style="edgeStyle=orthogonalEdgeStyle;rounded=0;orthogonalLoop=1;jettySize=auto;html=1;exitX=1;exitY=0.5;exitDx=0;exitDy=0;" edge="1" parent="IYAcXKrRA6iLwe_ncHML-3" source="IYAcXKrRA6iLwe_ncHML-60" target="IYAcXKrRA6iLwe_ncHML-18">
          <mxGeometry relative="1" as="geometry" />
        </mxCell>
        <mxCell id="IYAcXKrRA6iLwe_ncHML-107" style="edgeStyle=orthogonalEdgeStyle;rounded=0;orthogonalLoop=1;jettySize=auto;html=1;exitX=1;exitY=0.5;exitDx=0;exitDy=0;entryX=0;entryY=0.5;entryDx=0;entryDy=0;" edge="1" parent="IYAcXKrRA6iLwe_ncHML-3" source="IYAcXKrRA6iLwe_ncHML-104" target="IYAcXKrRA6iLwe_ncHML-114">
          <mxGeometry relative="1" as="geometry">
            <mxPoint x="379" y="926" as="targetPoint" />
          </mxGeometry>
        </mxCell>
        <mxCell id="IYAcXKrRA6iLwe_ncHML-104" value="Hiển thị chi tiết hóa đơn" style="rounded=1;whiteSpace=wrap;html=1;arcSize=40;fontColor=#000000;fillColor=#FFFFFF;strokeColor=#000000;" vertex="1" parent="IYAcXKrRA6iLwe_ncHML-3">
          <mxGeometry x="23" y="886" width="156" height="46" as="geometry" />
        </mxCell>
        <mxCell id="IYAcXKrRA6iLwe_ncHML-117" style="edgeStyle=orthogonalEdgeStyle;rounded=0;orthogonalLoop=1;jettySize=auto;html=1;exitX=1;exitY=0.5;exitDx=0;exitDy=0;entryX=0.5;entryY=1;entryDx=0;entryDy=0;" edge="1" parent="IYAcXKrRA6iLwe_ncHML-3" source="IYAcXKrRA6iLwe_ncHML-114" target="IYAcXKrRA6iLwe_ncHML-93">
          <mxGeometry relative="1" as="geometry" />
        </mxCell>
        <mxCell id="IYAcXKrRA6iLwe_ncHML-114" value="" style="rhombus;whiteSpace=wrap;html=1;" vertex="1" parent="IYAcXKrRA6iLwe_ncHML-3">
          <mxGeometry x="333" y="889" width="50" height="40" as="geometry" />
        </mxCell>
        <mxCell id="IYAcXKrRA6iLwe_ncHML-44" value="Người dùng" style="swimlane;startSize=23;" vertex="1" parent="1">
          <mxGeometry x="-292" y="190" width="685" height="1132" as="geometry" />
        </mxCell>
        <mxCell id="IYAcXKrRA6iLwe_ncHML-45" value="Chọn chức năng Quản lý khách hàng" style="rounded=1;whiteSpace=wrap;html=1;arcSize=40;fontColor=#000000;fillColor=#FFFFFF;strokeColor=#000000;" vertex="1" parent="IYAcXKrRA6iLwe_ncHML-44">
          <mxGeometry x="30" y="110" width="130" height="40" as="geometry" />
        </mxCell>
        <mxCell id="IYAcXKrRA6iLwe_ncHML-46" value="" style="ellipse;html=1;shape=startState;fillColor=#000000;strokeColor=#000000;" vertex="1" parent="IYAcXKrRA6iLwe_ncHML-44">
          <mxGeometry x="80" y="40" width="30" height="30" as="geometry" />
        </mxCell>
        <mxCell id="IYAcXKrRA6iLwe_ncHML-47" value="" style="edgeStyle=orthogonalEdgeStyle;html=1;verticalAlign=bottom;endArrow=open;endSize=8;strokeColor=#000000;rounded=0;entryX=0.5;entryY=0;entryDx=0;entryDy=0;" edge="1" parent="IYAcXKrRA6iLwe_ncHML-44" source="IYAcXKrRA6iLwe_ncHML-46" target="IYAcXKrRA6iLwe_ncHML-45">
          <mxGeometry relative="1" as="geometry">
            <mxPoint x="90" y="130" as="targetPoint" />
          </mxGeometry>
        </mxCell>
        <mxCell id="IYAcXKrRA6iLwe_ncHML-48" style="edgeStyle=orthogonalEdgeStyle;rounded=0;orthogonalLoop=1;jettySize=auto;html=1;exitX=0.5;exitY=1;exitDx=0;exitDy=0;entryX=0.5;entryY=0;entryDx=0;entryDy=0;" edge="1" parent="IYAcXKrRA6iLwe_ncHML-44" source="IYAcXKrRA6iLwe_ncHML-49" target="IYAcXKrRA6iLwe_ncHML-54">
          <mxGeometry relative="1" as="geometry" />
        </mxCell>
        <mxCell id="IYAcXKrRA6iLwe_ncHML-49" value="Kiểm tra chức vụ" style="rounded=1;whiteSpace=wrap;html=1;arcSize=40;fontColor=#000000;fillColor=#FFFFFF;strokeColor=#000000;" vertex="1" parent="IYAcXKrRA6iLwe_ncHML-44">
          <mxGeometry x="35" y="218" width="128" height="42" as="geometry" />
        </mxCell>
        <mxCell id="IYAcXKrRA6iLwe_ncHML-50" style="edgeStyle=orthogonalEdgeStyle;rounded=0;orthogonalLoop=1;jettySize=auto;html=1;exitX=1;exitY=0.5;exitDx=0;exitDy=0;entryX=0;entryY=0.5;entryDx=0;entryDy=0;" edge="1" parent="IYAcXKrRA6iLwe_ncHML-44" source="IYAcXKrRA6iLwe_ncHML-54" target="IYAcXKrRA6iLwe_ncHML-56">
          <mxGeometry relative="1" as="geometry">
            <mxPoint x="234" y="334" as="targetPoint" />
          </mxGeometry>
        </mxCell>
        <mxCell id="IYAcXKrRA6iLwe_ncHML-51" value="[Quản lý cửa hàng&lt;div&gt;hoặc quản trị viên]&lt;/div&gt;" style="edgeLabel;html=1;align=center;verticalAlign=middle;resizable=0;points=[];" vertex="1" connectable="0" parent="IYAcXKrRA6iLwe_ncHML-50">
          <mxGeometry x="-0.5309" y="-1" relative="1" as="geometry">
            <mxPoint x="-4" y="-25" as="offset" />
          </mxGeometry>
        </mxCell>
        <mxCell id="IYAcXKrRA6iLwe_ncHML-52" style="edgeStyle=orthogonalEdgeStyle;rounded=0;orthogonalLoop=1;jettySize=auto;html=1;exitX=0.5;exitY=1;exitDx=0;exitDy=0;entryX=0.5;entryY=0;entryDx=0;entryDy=0;" edge="1" parent="IYAcXKrRA6iLwe_ncHML-44" source="IYAcXKrRA6iLwe_ncHML-54" target="IYAcXKrRA6iLwe_ncHML-63">
          <mxGeometry relative="1" as="geometry">
            <mxPoint x="95" y="422" as="targetPoint" />
          </mxGeometry>
        </mxCell>
        <mxCell id="IYAcXKrRA6iLwe_ncHML-53" value="[Khác]" style="edgeLabel;html=1;align=center;verticalAlign=middle;resizable=0;points=[];" vertex="1" connectable="0" parent="IYAcXKrRA6iLwe_ncHML-52">
          <mxGeometry x="-0.305" y="-1" relative="1" as="geometry">
            <mxPoint as="offset" />
          </mxGeometry>
        </mxCell>
        <mxCell id="IYAcXKrRA6iLwe_ncHML-54" value="" style="rhombus;whiteSpace=wrap;html=1;" vertex="1" parent="IYAcXKrRA6iLwe_ncHML-44">
          <mxGeometry x="70" y="290" width="50" height="40" as="geometry" />
        </mxCell>
        <mxCell id="IYAcXKrRA6iLwe_ncHML-55" style="edgeStyle=orthogonalEdgeStyle;rounded=0;orthogonalLoop=1;jettySize=auto;html=1;exitX=1;exitY=0.5;exitDx=0;exitDy=0;entryX=0;entryY=0.5;entryDx=0;entryDy=0;" edge="1" parent="IYAcXKrRA6iLwe_ncHML-44" source="IYAcXKrRA6iLwe_ncHML-56" target="IYAcXKrRA6iLwe_ncHML-59">
          <mxGeometry relative="1" as="geometry" />
        </mxCell>
        <mxCell id="IYAcXKrRA6iLwe_ncHML-56" value="Thực hiện các thao tác quản lý" style="rounded=1;whiteSpace=wrap;html=1;arcSize=40;fontColor=#000000;fillColor=#FFFFFF;strokeColor=#000000;" vertex="1" parent="IYAcXKrRA6iLwe_ncHML-44">
          <mxGeometry x="267" y="193" width="128" height="42" as="geometry" />
        </mxCell>
        <mxCell id="IYAcXKrRA6iLwe_ncHML-57" style="edgeStyle=orthogonalEdgeStyle;rounded=0;orthogonalLoop=1;jettySize=auto;html=1;exitX=0;exitY=1;exitDx=0;exitDy=0;entryX=0.5;entryY=0;entryDx=0;entryDy=0;" edge="1" parent="IYAcXKrRA6iLwe_ncHML-44" source="IYAcXKrRA6iLwe_ncHML-59" target="IYAcXKrRA6iLwe_ncHML-71">
          <mxGeometry relative="1" as="geometry">
            <Array as="points">
              <mxPoint x="484" y="406" />
              <mxPoint x="402" y="406" />
            </Array>
            <mxPoint x="373" y="403" as="targetPoint" />
          </mxGeometry>
        </mxCell>
        <mxCell id="IYAcXKrRA6iLwe_ncHML-58" value="[Tìm kiếm]" style="edgeLabel;html=1;align=center;verticalAlign=middle;resizable=0;points=[];" vertex="1" connectable="0" parent="IYAcXKrRA6iLwe_ncHML-57">
          <mxGeometry x="-0.8581" y="-1" relative="1" as="geometry">
            <mxPoint x="-23" y="26" as="offset" />
          </mxGeometry>
        </mxCell>
        <mxCell id="IYAcXKrRA6iLwe_ncHML-59" value="" style="rhombus;whiteSpace=wrap;html=1;" vertex="1" parent="IYAcXKrRA6iLwe_ncHML-44">
          <mxGeometry x="472" y="195" width="50" height="39" as="geometry" />
        </mxCell>
        <mxCell id="IYAcXKrRA6iLwe_ncHML-62" style="edgeStyle=orthogonalEdgeStyle;rounded=0;orthogonalLoop=1;jettySize=auto;html=1;exitX=0.5;exitY=1;exitDx=0;exitDy=0;entryX=0.5;entryY=0;entryDx=0;entryDy=0;" edge="1" parent="IYAcXKrRA6iLwe_ncHML-44" source="IYAcXKrRA6iLwe_ncHML-63" target="IYAcXKrRA6iLwe_ncHML-67">
          <mxGeometry relative="1" as="geometry" />
        </mxCell>
        <mxCell id="IYAcXKrRA6iLwe_ncHML-63" value="Thực hiện các thao tác xem thông tin" style="rounded=1;whiteSpace=wrap;html=1;arcSize=40;fontColor=#000000;fillColor=#FFFFFF;strokeColor=#000000;" vertex="1" parent="IYAcXKrRA6iLwe_ncHML-44">
          <mxGeometry x="31" y="429" width="128" height="42" as="geometry" />
        </mxCell>
        <mxCell id="IYAcXKrRA6iLwe_ncHML-64" style="edgeStyle=orthogonalEdgeStyle;rounded=0;orthogonalLoop=1;jettySize=auto;html=1;exitX=1;exitY=0.5;exitDx=0;exitDy=0;entryX=0;entryY=0.5;entryDx=0;entryDy=0;" edge="1" parent="IYAcXKrRA6iLwe_ncHML-44" source="IYAcXKrRA6iLwe_ncHML-67" target="IYAcXKrRA6iLwe_ncHML-71">
          <mxGeometry relative="1" as="geometry">
            <mxPoint x="277" y="608.5" as="targetPoint" />
          </mxGeometry>
        </mxCell>
        <mxCell id="IYAcXKrRA6iLwe_ncHML-65" value="[Tìm kiếm]" style="edgeLabel;html=1;align=center;verticalAlign=middle;resizable=0;points=[];" vertex="1" connectable="0" parent="IYAcXKrRA6iLwe_ncHML-64">
          <mxGeometry x="-0.753" y="1" relative="1" as="geometry">
            <mxPoint as="offset" />
          </mxGeometry>
        </mxCell>
        <mxCell id="IYAcXKrRA6iLwe_ncHML-66" style="edgeStyle=orthogonalEdgeStyle;rounded=0;orthogonalLoop=1;jettySize=auto;html=1;exitX=0.5;exitY=1;exitDx=0;exitDy=0;entryX=0;entryY=0.5;entryDx=0;entryDy=0;" edge="1" parent="IYAcXKrRA6iLwe_ncHML-44" source="IYAcXKrRA6iLwe_ncHML-67" target="IYAcXKrRA6iLwe_ncHML-72">
          <mxGeometry relative="1" as="geometry">
            <mxPoint x="114" y="680.9999999999998" as="targetPoint" />
          </mxGeometry>
        </mxCell>
        <mxCell id="IYAcXKrRA6iLwe_ncHML-67" value="" style="rhombus;whiteSpace=wrap;html=1;" vertex="1" parent="IYAcXKrRA6iLwe_ncHML-44">
          <mxGeometry x="70" y="515" width="50" height="40" as="geometry" />
        </mxCell>
        <mxCell id="IYAcXKrRA6iLwe_ncHML-68" value="[Xem thống kê hóa đơn&lt;div&gt;mua hàng]&lt;/div&gt;" style="edgeLabel;html=1;align=center;verticalAlign=middle;resizable=0;points=[];" vertex="1" connectable="0" parent="IYAcXKrRA6iLwe_ncHML-44">
          <mxGeometry x="98.99666666666673" y="580" as="geometry">
            <mxPoint x="-8" y="1" as="offset" />
          </mxGeometry>
        </mxCell>
        <mxCell id="IYAcXKrRA6iLwe_ncHML-69" style="edgeStyle=orthogonalEdgeStyle;rounded=0;orthogonalLoop=1;jettySize=auto;html=1;exitX=0;exitY=1;exitDx=0;exitDy=0;entryX=1;entryY=0.5;entryDx=0;entryDy=0;" edge="1" parent="IYAcXKrRA6iLwe_ncHML-44" source="IYAcXKrRA6iLwe_ncHML-59" target="IYAcXKrRA6iLwe_ncHML-72">
          <mxGeometry relative="1" as="geometry">
            <mxPoint x="230.99199999999996" y="664.1579999999999" as="targetPoint" />
            <Array as="points">
              <mxPoint x="420" y="225" />
              <mxPoint x="420" y="269" />
              <mxPoint x="231" y="269" />
              <mxPoint x="231" y="702" />
            </Array>
          </mxGeometry>
        </mxCell>
        <mxCell id="IYAcXKrRA6iLwe_ncHML-70" value="[Xem thống kê hóa đơn&lt;div&gt;mua hàng]&lt;/div&gt;" style="edgeLabel;html=1;align=center;verticalAlign=middle;resizable=0;points=[];" vertex="1" connectable="0" parent="IYAcXKrRA6iLwe_ncHML-44">
          <mxGeometry x="423.9966666666667" y="260" as="geometry">
            <mxPoint x="-16" y="-9" as="offset" />
          </mxGeometry>
        </mxCell>
        <mxCell id="IYAcXKrRA6iLwe_ncHML-71" value="" style="rhombus;whiteSpace=wrap;html=1;" vertex="1" parent="IYAcXKrRA6iLwe_ncHML-44">
          <mxGeometry x="377" y="449" width="50" height="40" as="geometry" />
        </mxCell>
        <mxCell id="IYAcXKrRA6iLwe_ncHML-72" value="" style="rhombus;whiteSpace=wrap;html=1;" vertex="1" parent="IYAcXKrRA6iLwe_ncHML-44">
          <mxGeometry x="136" y="682" width="50" height="40" as="geometry" />
        </mxCell>
        <mxCell id="IYAcXKrRA6iLwe_ncHML-73" value="Nhấn Xem chi tiết hóa đơn" style="rounded=1;whiteSpace=wrap;html=1;arcSize=40;fontColor=#000000;fillColor=#FFFFFF;strokeColor=#000000;" vertex="1" parent="IYAcXKrRA6iLwe_ncHML-44">
          <mxGeometry x="497" y="894" width="132" height="30" as="geometry" />
        </mxCell>
        <mxCell id="IYAcXKrRA6iLwe_ncHML-32" value="Điền thông tin vào biểu mẫu" style="rounded=1;whiteSpace=wrap;html=1;arcSize=40;fontColor=#000000;fillColor=#FFFFFF;strokeColor=#000000;" vertex="1" parent="IYAcXKrRA6iLwe_ncHML-44">
          <mxGeometry x="522" y="321" width="150" height="40" as="geometry" />
        </mxCell>
        <mxCell id="IYAcXKrRA6iLwe_ncHML-102" style="edgeStyle=orthogonalEdgeStyle;rounded=0;orthogonalLoop=1;jettySize=auto;html=1;exitX=0;exitY=0.5;exitDx=0;exitDy=0;" edge="1" parent="IYAcXKrRA6iLwe_ncHML-44" source="IYAcXKrRA6iLwe_ncHML-97">
          <mxGeometry relative="1" as="geometry">
            <mxPoint x="260.39996337890625" y="971.6000366210938" as="targetPoint" />
          </mxGeometry>
        </mxCell>
        <mxCell id="IYAcXKrRA6iLwe_ncHML-108" value="[Lọc mốc thời gian]" style="edgeLabel;html=1;align=center;verticalAlign=middle;resizable=0;points=[];" vertex="1" connectable="0" parent="IYAcXKrRA6iLwe_ncHML-102">
          <mxGeometry x="-0.5874" relative="1" as="geometry">
            <mxPoint x="-14" as="offset" />
          </mxGeometry>
        </mxCell>
        <mxCell id="IYAcXKrRA6iLwe_ncHML-105" style="edgeStyle=orthogonalEdgeStyle;rounded=0;orthogonalLoop=1;jettySize=auto;html=1;exitX=1;exitY=0.5;exitDx=0;exitDy=0;entryX=0;entryY=0.5;entryDx=0;entryDy=0;" edge="1" parent="IYAcXKrRA6iLwe_ncHML-44" source="IYAcXKrRA6iLwe_ncHML-97" target="IYAcXKrRA6iLwe_ncHML-73">
          <mxGeometry relative="1" as="geometry" />
        </mxCell>
        <mxCell id="IYAcXKrRA6iLwe_ncHML-109" value="[Xem chi tiết&lt;div&gt;hóa đơn]&lt;/div&gt;" style="edgeLabel;html=1;align=center;verticalAlign=middle;resizable=0;points=[];" vertex="1" connectable="0" parent="IYAcXKrRA6iLwe_ncHML-105">
          <mxGeometry x="-0.4196" y="-3" relative="1" as="geometry">
            <mxPoint x="13" y="-3" as="offset" />
          </mxGeometry>
        </mxCell>
        <mxCell id="IYAcXKrRA6iLwe_ncHML-97" value="" style="rhombus;whiteSpace=wrap;html=1;" vertex="1" parent="IYAcXKrRA6iLwe_ncHML-44">
          <mxGeometry x="366.5" y="889" width="50" height="40" as="geometry" />
        </mxCell>
        <mxCell id="IYAcXKrRA6iLwe_ncHML-101" style="edgeStyle=orthogonalEdgeStyle;rounded=0;orthogonalLoop=1;jettySize=auto;html=1;exitX=0.5;exitY=1;exitDx=0;exitDy=0;entryX=0.5;entryY=0;entryDx=0;entryDy=0;" edge="1" parent="IYAcXKrRA6iLwe_ncHML-44" source="IYAcXKrRA6iLwe_ncHML-98" target="IYAcXKrRA6iLwe_ncHML-97">
          <mxGeometry relative="1" as="geometry" />
        </mxCell>
        <mxCell id="IYAcXKrRA6iLwe_ncHML-98" value="Thực hiện thao tác xem thông tin thống kê hóa đơn mua hàng" style="rounded=1;whiteSpace=wrap;html=1;arcSize=40;fontColor=#000000;fillColor=#FFFFFF;strokeColor=#000000;" vertex="1" parent="IYAcXKrRA6iLwe_ncHML-44">
          <mxGeometry x="315" y="800" width="153" height="58" as="geometry" />
        </mxCell>
        <mxCell id="IYAcXKrRA6iLwe_ncHML-110" value="Chọn mốc từ ngày nào đến ngày nào" style="rounded=1;whiteSpace=wrap;html=1;arcSize=40;fontColor=#000000;fillColor=#FFFFFF;strokeColor=#000000;" vertex="1" parent="IYAcXKrRA6iLwe_ncHML-44">
          <mxGeometry x="205" y="975" width="132" height="30" as="geometry" />
        </mxCell>
        <mxCell id="IYAcXKrRA6iLwe_ncHML-76" style="edgeStyle=orthogonalEdgeStyle;rounded=0;orthogonalLoop=1;jettySize=auto;html=1;exitX=1;exitY=0.5;exitDx=0;exitDy=0;" edge="1" parent="1" source="IYAcXKrRA6iLwe_ncHML-45" target="IYAcXKrRA6iLwe_ncHML-4">
          <mxGeometry relative="1" as="geometry" />
        </mxCell>
        <mxCell id="IYAcXKrRA6iLwe_ncHML-77" style="edgeStyle=orthogonalEdgeStyle;rounded=0;orthogonalLoop=1;jettySize=auto;html=1;exitX=0.5;exitY=1;exitDx=0;exitDy=0;entryX=0.5;entryY=0;entryDx=0;entryDy=0;" edge="1" parent="1" source="IYAcXKrRA6iLwe_ncHML-4" target="IYAcXKrRA6iLwe_ncHML-49">
          <mxGeometry relative="1" as="geometry">
            <mxPoint x="173" y="406" as="targetPoint" />
          </mxGeometry>
        </mxCell>
        <mxCell id="IYAcXKrRA6iLwe_ncHML-78" style="edgeStyle=orthogonalEdgeStyle;rounded=0;orthogonalLoop=1;jettySize=auto;html=1;exitX=0.5;exitY=1;exitDx=0;exitDy=0;entryX=0;entryY=0.5;entryDx=0;entryDy=0;" edge="1" parent="1" source="IYAcXKrRA6iLwe_ncHML-71" target="IYAcXKrRA6iLwe_ncHML-16">
          <mxGeometry relative="1" as="geometry">
            <mxPoint x="49.00000000000023" y="809" as="sourcePoint" />
          </mxGeometry>
        </mxCell>
        <mxCell id="IYAcXKrRA6iLwe_ncHML-85" style="edgeStyle=orthogonalEdgeStyle;rounded=0;orthogonalLoop=1;jettySize=auto;html=1;exitX=0.5;exitY=1;exitDx=0;exitDy=0;entryX=-0.001;entryY=0.587;entryDx=0;entryDy=0;entryPerimeter=0;" edge="1" parent="1" source="IYAcXKrRA6iLwe_ncHML-59" target="IYAcXKrRA6iLwe_ncHML-36">
          <mxGeometry relative="1" as="geometry" />
        </mxCell>
        <mxCell id="IYAcXKrRA6iLwe_ncHML-86" value="[Sửa]" style="edgeLabel;html=1;align=center;verticalAlign=middle;resizable=0;points=[];" vertex="1" connectable="0" parent="IYAcXKrRA6iLwe_ncHML-85">
          <mxGeometry x="-0.9468" relative="1" as="geometry">
            <mxPoint x="5" y="16" as="offset" />
          </mxGeometry>
        </mxCell>
        <mxCell id="IYAcXKrRA6iLwe_ncHML-89" style="edgeStyle=orthogonalEdgeStyle;rounded=0;orthogonalLoop=1;jettySize=auto;html=1;exitX=0.5;exitY=1;exitDx=0;exitDy=0;entryX=0;entryY=0.5;entryDx=0;entryDy=0;" edge="1" parent="1" source="IYAcXKrRA6iLwe_ncHML-72" target="IYAcXKrRA6iLwe_ncHML-43">
          <mxGeometry relative="1" as="geometry">
            <mxPoint x="-131.47058823529414" y="1182.6471019071691" as="targetPoint" />
          </mxGeometry>
        </mxCell>
        <mxCell id="IYAcXKrRA6iLwe_ncHML-33" style="edgeStyle=orthogonalEdgeStyle;rounded=0;orthogonalLoop=1;jettySize=auto;html=1;exitX=1;exitY=0.5;exitDx=0;exitDy=0;entryX=0;entryY=0.5;entryDx=0;entryDy=0;" edge="1" parent="1" source="IYAcXKrRA6iLwe_ncHML-32" target="IYAcXKrRA6iLwe_ncHML-34">
          <mxGeometry relative="1" as="geometry" />
        </mxCell>
        <mxCell id="IYAcXKrRA6iLwe_ncHML-35" style="edgeStyle=orthogonalEdgeStyle;rounded=0;orthogonalLoop=1;jettySize=auto;html=1;exitX=0;exitY=0.5;exitDx=0;exitDy=0;entryX=0.843;entryY=0.92;entryDx=0;entryDy=0;entryPerimeter=0;" edge="1" parent="1" source="IYAcXKrRA6iLwe_ncHML-41" target="IYAcXKrRA6iLwe_ncHML-32">
          <mxGeometry relative="1" as="geometry" />
        </mxCell>
        <mxCell id="IYAcXKrRA6iLwe_ncHML-37" style="edgeStyle=orthogonalEdgeStyle;rounded=0;orthogonalLoop=1;jettySize=auto;html=1;entryX=0.84;entryY=0.087;entryDx=0;entryDy=0;entryPerimeter=0;exitX=0.5;exitY=1;exitDx=0;exitDy=0;" edge="1" parent="1" source="IYAcXKrRA6iLwe_ncHML-36" target="IYAcXKrRA6iLwe_ncHML-32">
          <mxGeometry relative="1" as="geometry">
            <mxPoint x="552" y="751" as="sourcePoint" />
          </mxGeometry>
        </mxCell>
        <mxCell id="IYAcXKrRA6iLwe_ncHML-99" style="edgeStyle=orthogonalEdgeStyle;rounded=0;orthogonalLoop=1;jettySize=auto;html=1;exitX=0.25;exitY=1;exitDx=0;exitDy=0;" edge="1" parent="1" source="IYAcXKrRA6iLwe_ncHML-43" target="IYAcXKrRA6iLwe_ncHML-98">
          <mxGeometry relative="1" as="geometry" />
        </mxCell>
        <mxCell id="IYAcXKrRA6iLwe_ncHML-106" style="edgeStyle=orthogonalEdgeStyle;rounded=0;orthogonalLoop=1;jettySize=auto;html=1;exitX=1;exitY=0.5;exitDx=0;exitDy=0;" edge="1" parent="1" source="IYAcXKrRA6iLwe_ncHML-73" target="IYAcXKrRA6iLwe_ncHML-104">
          <mxGeometry relative="1" as="geometry" />
        </mxCell>
        <mxCell id="IYAcXKrRA6iLwe_ncHML-111" style="edgeStyle=orthogonalEdgeStyle;rounded=0;orthogonalLoop=1;jettySize=auto;html=1;exitX=1;exitY=0.5;exitDx=0;exitDy=0;" edge="1" parent="1" source="IYAcXKrRA6iLwe_ncHML-110" target="IYAcXKrRA6iLwe_ncHML-43">
          <mxGeometry relative="1" as="geometry" />
        </mxCell>
        <mxCell id="IYAcXKrRA6iLwe_ncHML-112" style="edgeStyle=orthogonalEdgeStyle;rounded=0;orthogonalLoop=1;jettySize=auto;html=1;exitX=0.5;exitY=1;exitDx=0;exitDy=0;entryX=0.5;entryY=1;entryDx=0;entryDy=0;" edge="1" parent="1" source="IYAcXKrRA6iLwe_ncHML-97" target="IYAcXKrRA6iLwe_ncHML-114">
          <mxGeometry relative="1" as="geometry">
            <mxPoint x="748" y="1157" as="targetPoint" />
          </mxGeometry>
        </mxCell>
        <mxCell id="IYAcXKrRA6iLwe_ncHML-113" value="[Xem danh sách&lt;div&gt;hóa đơn]&lt;/div&gt;" style="edgeLabel;html=1;align=center;verticalAlign=middle;resizable=0;points=[];" vertex="1" connectable="0" parent="IYAcXKrRA6iLwe_ncHML-112">
          <mxGeometry x="-0.6504" relative="1" as="geometry">
            <mxPoint as="offset" />
          </mxGeometry>
        </mxCell>
      </root>
    </mxGraphModel>
  </diagram>
</mxfile>
